<svg width="64" height="64" xmlns="http://www.w3.org/2000/svg"><path d="M4.836.49l27.26 4.083L59.163.489 54.68 57.805l-22.584 5.706-23.785-5.706z" fill="#e5e7e8" stroke="#ccc"/><path d="M32.096 10.746L53.925 6.83l-2.909 46.99-18.92 4.698z" fill="#fff"/><path fill="#35a6dc" d="M-.016 22.432h40.593v19.136H-.016z"/><path fill="#09c2f4" d="M40.196 22.432h23.91v19.136h-23.91z"/><g><g fill="#fff" aria-label="HWP"><path d="M10.833 38.758H8.305v-5.68H3.937v5.68H1.393V25.142h2.544v5.664h4.368v-5.664h2.528zM23.857 34.07h.128q.528-2.256 1.072-4.448t1.104-4.48h2.432l-3.36 13.616h-2.608l-2.24-8.768-2.16 8.768h-2.608l-3.472-13.616h2.448l2.256 8.928h.128l.528-2.176q.416-1.696.816-3.36.416-1.68.832-3.392h2.448zM35.524 25.142q.768 0 1.44.288.688.288 1.184.8.496.496.784 1.168t.288 1.44v.592q0 .768-.288 1.44t-.784 1.184q-.496.496-1.184.784-.672.288-1.44.288h-3.44v5.632h-2.4V25.142zm-3.44 2.384v3.216h3.04q.864 0 1.248-.416.4-.432.4-1.184 0-.72-.4-1.168t-1.248-.448z"/></g><text x="84.134" y="40.227" font-family="sans-serif" font-size="40" style="line-height:1.25"/><g fill="#fff" aria-label="JS"><path d="M50.683 34.845q0 .816-.32 1.536-.304.72-.848 1.248-.544.544-1.264.848-.704.32-1.52.32h-.976q-.768 0-1.424-.288-.656-.272-1.152-.752t-.8-1.136q-.304-.64-.368-1.392h2.464q.128.512.432.864.304.336.864.336h.848q.352 0 .64-.128.288-.144.496-.384t.32-.544q.128-.32.128-.672v-9.52h2.48zM58.374 30.349q.848 0 1.568.32.736.32 1.264.896t.816 1.376q.304.784.304 1.712 0 .88-.272 1.648-.272.752-.768 1.296-.496.56-1.184.88t-1.52.32h-6.208v-2.528h5.488q.4 0 .768-.096t.624-.288q.272-.208.432-.512t.16-.72q0-.784-.512-1.216t-1.28-.432h-1.616q-1.024 0-1.856-.224t-1.424-.704q-.576-.48-.896-1.232-.32-.768-.32-1.824 0-.752.256-1.44.256-.704.72-1.232t1.12-.848 1.456-.32h5.632v2.656h-4.592q-.384 0-.736.048-.336.048-.592.192-.256.128-.4.384t-.144.688q0 .512.336.864.336.336.928.336z"/></g></g></svg>